<svg width="400" height="250" viewBox="0 0 400 250" fill="none" xmlns="http://www.w3.org/2000/svg">
<path d="M69.0381 203.217L334.608 203.217" stroke="#004165" stroke-width="1.6" stroke-linecap="round" stroke-linejoin="round"/>
<path d="M343.308 203.217L352.001 203.217" stroke="#004165" stroke-width="1.6" stroke-linecap="round" stroke-linejoin="round"/>
<path d="M56 203.217L60.3464 203.217" stroke="#004165" stroke-width="1.6" stroke-linecap="round" stroke-linejoin="round"/>
<path d="M216.433 84.1674L67.9641 102.051C65.2225 102.381 63.2677 104.871 63.5979 107.613L75.0047 202.314C75.3349 205.055 77.8251 207.01 80.5667 206.68L229.036 188.797C231.777 188.467 233.732 185.976 233.402 183.235L221.995 88.5336C221.665 85.792 219.175 83.8372 216.433 84.1674Z" fill="white" stroke="#004165" stroke-width="1.6" stroke-linecap="round" stroke-linejoin="round"/>
<path d="M69.9531 102.853L68.1117 103.074C65.9184 103.339 64.3545 105.331 64.6187 107.524L75.9146 201.305C76.1788 203.498 78.1709 205.062 80.3642 204.797L82.2057 204.576L69.9531 102.853Z" fill="#E2EFF4"/>
<mask id="mask0_3410_6577" style="mask-type:alpha" maskUnits="userSpaceOnUse" x="192" y="96" width="20" height="21">
<path d="M208.911 106.993L209.151 106.969C209.314 106.956 209.481 106.951 209.651 106.955L209.835 106.963C210.544 107.007 210.93 107.199 211.159 107.34L211.233 107.389C211.599 107.648 211.863 108.108 211.553 108.653L211.518 108.712C211.033 109.504 207.943 113.959 207.106 115.137L207.064 115.193C206.923 115.364 206.663 115.564 206.3 115.536L206.172 115.517C205.694 115.414 205.149 114.976 204.905 114.635L204.824 114.52C204.669 114.294 204.549 114.083 204.418 113.731L204.339 113.503C203.901 112.134 204.117 110.763 204.687 109.786L204.825 109.563C205.401 108.686 206.227 107.974 206.931 107.607C207.385 107.37 208.081 107.093 208.911 106.993ZM194.633 108.713L194.879 108.688C195.609 108.634 196.255 108.729 196.704 108.841L196.9 108.894C197.699 109.133 198.669 109.672 199.4 110.423L199.529 110.563C200.288 111.427 200.77 112.743 200.6 114.191L200.575 114.367C200.523 114.699 200.448 114.916 200.341 115.184L200.292 115.294C200.091 115.709 199.642 116.244 199.201 116.391L199.088 116.42C198.754 116.482 198.471 116.325 198.324 116.195L198.223 116.108C196.966 115.015 192.924 111.432 192.466 110.95L192.386 110.858C192.025 110.397 192.222 109.898 192.533 109.583L192.583 109.534C192.796 109.329 193.169 109.05 193.907 108.851C194.153 108.785 194.396 108.741 194.633 108.713ZM200.466 97.0121L200.666 96.9916C203.524 96.7513 206.069 98.7618 206.407 101.566L206.431 101.81C206.514 102.95 206.217 104.038 205.641 104.948L205.517 105.126C204.716 106.224 203.682 106.713 203.228 106.758L203.107 106.764C202.504 106.765 202.561 106.224 202.587 105.991L202.606 105.875C202.648 105.671 202.739 105.418 202.861 105.182L202.933 105.039C203.114 104.652 203.213 104.233 203.152 103.733L203.13 103.598C202.933 102.674 201.924 102.122 201.094 102.222L200.975 102.241C200.147 102.404 199.341 103.218 199.457 104.178L199.485 104.36C199.578 104.832 199.799 105.195 200.083 105.517L200.184 105.639C200.346 105.846 200.476 106.066 200.54 106.238L200.557 106.283C200.648 106.538 200.786 107.04 200.097 107.135L200.021 107.143C199.503 107.176 198.353 106.894 197.33 105.949L197.167 105.785C196.423 105.004 195.917 103.992 195.778 102.846C195.433 99.9768 197.53 97.3658 200.466 97.0121Z" fill="white"/>
</mask>
<g mask="url(#mask0_3410_6577)">
<path d="M208.911 106.993L209.151 106.969C209.314 106.956 209.481 106.951 209.651 106.955L209.835 106.963C210.544 107.007 210.93 107.199 211.159 107.34L211.233 107.389C211.599 107.648 211.863 108.108 211.553 108.653L211.518 108.712C211.033 109.504 207.943 113.959 207.106 115.137L207.064 115.193C206.923 115.364 206.663 115.564 206.3 115.536L206.172 115.517C205.694 115.414 205.149 114.976 204.905 114.635L204.824 114.52C204.669 114.294 204.549 114.083 204.418 113.731L204.339 113.503C203.901 112.134 204.117 110.763 204.687 109.786L204.825 109.563C205.401 108.686 206.227 107.974 206.931 107.607C207.385 107.37 208.081 107.093 208.911 106.993ZM194.633 108.713L194.879 108.688C195.609 108.634 196.255 108.729 196.704 108.841L196.9 108.894C197.699 109.133 198.669 109.672 199.4 110.423L199.529 110.563C200.288 111.427 200.77 112.743 200.6 114.191L200.575 114.367C200.523 114.699 200.448 114.916 200.341 115.184L200.292 115.294C200.091 115.709 199.642 116.244 199.201 116.391L199.088 116.42C198.754 116.482 198.471 116.325 198.324 116.195L198.223 116.108C196.966 115.015 192.924 111.432 192.466 110.95L192.386 110.858C192.025 110.397 192.222 109.898 192.533 109.583L192.583 109.534C192.796 109.329 193.169 109.05 193.907 108.851C194.153 108.785 194.396 108.741 194.633 108.713ZM200.466 97.0121L200.666 96.9916C203.524 96.7513 206.069 98.7618 206.407 101.566L206.431 101.81C206.514 102.95 206.217 104.038 205.641 104.948L205.517 105.126C204.716 106.224 203.682 106.713 203.228 106.758L203.107 106.764C202.504 106.765 202.561 106.224 202.587 105.991L202.606 105.875C202.648 105.671 202.739 105.418 202.861 105.182L202.933 105.039C203.114 104.652 203.213 104.233 203.152 103.733L203.13 103.598C202.933 102.674 201.924 102.122 201.094 102.222L200.975 102.241C200.147 102.404 199.341 103.218 199.457 104.178L199.485 104.36C199.578 104.832 199.799 105.195 200.083 105.517L200.184 105.639C200.346 105.846 200.476 106.066 200.54 106.238L200.557 106.283C200.648 106.538 200.786 107.04 200.097 107.135L200.021 107.143C199.503 107.176 198.353 106.894 197.33 105.949L197.167 105.785C196.423 105.004 195.917 103.992 195.778 102.846C195.433 99.9768 197.53 97.3658 200.466 97.0121Z" fill="#007DBA"/>
</g>
<path opacity="0.26" d="M71.0869 162.469L69.7021 150.972C148.694 124.609 225.603 128.306 225.603 128.306L226.003 131.627C226.003 131.627 148.931 128.728 71.0869 162.469Z" fill="#C6DFEA"/>
<path opacity="0.5" d="M71.6429 167.069L71.5003 165.885C145.107 120.636 225.175 124.729 225.175 124.729L225.236 125.24C225.236 125.24 141.908 122.058 71.6429 167.069Z" fill="#C6DFEA"/>
<path d="M91.2405 189.074L135.96 183.688" stroke="#7A99AC" stroke-width="1.6" stroke-linecap="round" stroke-linejoin="round"/>
<path d="M90.468 182.652L151.449 175.307" stroke="#7A99AC" stroke-width="1.6" stroke-linecap="round" stroke-linejoin="round"/>
<path d="M91.3511 168.931C91.2505 168.096 90.4921 167.501 89.6572 167.602C88.8223 167.702 88.227 168.461 88.3275 169.296C88.4281 170.13 89.1865 170.726 90.0214 170.625C90.8563 170.525 91.4516 169.766 91.3511 168.931Z" fill="#7A99AC" stroke="#7A99AC" stroke-width="1.6"/>
<path d="M96.7378 168.285C96.6372 167.45 95.8789 166.855 95.0439 166.955C94.209 167.056 93.6137 167.814 93.7143 168.649C93.8148 169.484 94.5732 170.079 95.4081 169.979C96.243 169.878 96.8384 169.12 96.7378 168.285Z" fill="#7A99AC" stroke="#7A99AC" stroke-width="1.6"/>
<path d="M102.116 167.636C102.016 166.802 101.257 166.206 100.422 166.307C99.5874 166.407 98.9921 167.166 99.0927 168.001C99.1932 168.836 99.9516 169.431 100.787 169.33C101.621 169.23 102.217 168.471 102.116 167.636Z" fill="#7A99AC" stroke="#7A99AC" stroke-width="1.6"/>
<path d="M107.498 166.988C107.397 166.153 106.639 165.558 105.804 165.658C104.969 165.759 104.373 166.517 104.474 167.352C104.575 168.187 105.333 168.782 106.168 168.682C107.003 168.581 107.598 167.823 107.498 166.988Z" fill="#7A99AC" stroke="#7A99AC" stroke-width="1.6"/>
<path d="M142.086 162.824C141.986 161.989 141.227 161.394 140.392 161.494C139.557 161.595 138.962 162.353 139.063 163.188C139.163 164.023 139.922 164.618 140.757 164.518C141.591 164.417 142.187 163.659 142.086 162.824Z" fill="#7A99AC" stroke="#7A99AC" stroke-width="1.6"/>
<path d="M148.151 162.092C148.051 161.257 147.292 160.661 146.458 160.762C145.623 160.862 145.027 161.621 145.128 162.456C145.228 163.291 145.987 163.886 146.822 163.785C147.657 163.685 148.252 162.926 148.151 162.092Z" fill="#7A99AC" stroke="#7A99AC" stroke-width="1.6"/>
<path d="M154.214 161.361C154.114 160.526 153.355 159.931 152.52 160.031C151.685 160.132 151.09 160.89 151.191 161.725C151.291 162.56 152.05 163.156 152.884 163.055C153.719 162.954 154.315 162.196 154.214 161.361Z" fill="#7A99AC" stroke="#7A99AC" stroke-width="1.6"/>
<path d="M160.281 160.631C160.18 159.796 159.422 159.2 158.587 159.301C157.752 159.401 157.157 160.16 157.257 160.995C157.358 161.83 158.116 162.425 158.951 162.324C159.786 162.224 160.381 161.466 160.281 160.631Z" fill="#7A99AC" stroke="#7A99AC" stroke-width="1.6"/>
<path d="M170.269 159.427C170.168 158.593 169.41 157.997 168.575 158.098C167.74 158.198 167.145 158.957 167.246 159.792C167.346 160.627 168.104 161.222 168.939 161.121C169.774 161.021 170.37 160.262 170.269 159.427Z" fill="#7A99AC" stroke="#7A99AC" stroke-width="1.6"/>
<path d="M176.335 158.697C176.235 157.862 175.477 157.267 174.642 157.367C173.807 157.468 173.211 158.226 173.312 159.061C173.412 159.896 174.171 160.491 175.006 160.391C175.841 160.29 176.436 159.532 176.335 158.697Z" fill="#7A99AC" stroke="#7A99AC" stroke-width="1.6"/>
<path d="M182.398 157.968C182.298 157.134 181.539 156.538 180.704 156.639C179.869 156.739 179.274 157.498 179.375 158.333C179.475 159.168 180.234 159.763 181.069 159.662C181.903 159.562 182.499 158.803 182.398 157.968Z" fill="#7A99AC" stroke="#7A99AC" stroke-width="1.6"/>
<path d="M188.464 157.238C188.363 156.403 187.605 155.808 186.77 155.908C185.935 156.009 185.34 156.767 185.44 157.602C185.541 158.437 186.299 159.032 187.134 158.932C187.969 158.831 188.564 158.073 188.464 157.238Z" fill="#7A99AC" stroke="#7A99AC" stroke-width="1.6"/>
<path d="M116.718 165.877C116.618 165.042 115.859 164.446 115.024 164.547C114.189 164.648 113.594 165.406 113.695 166.241C113.795 167.076 114.554 167.671 115.389 167.571C116.224 167.47 116.819 166.712 116.718 165.877Z" fill="#7A99AC" stroke="#7A99AC" stroke-width="1.6"/>
<path d="M122.101 165.228C122 164.393 121.242 163.798 120.407 163.899C119.572 163.999 118.977 164.758 119.077 165.592C119.178 166.427 119.936 167.023 120.771 166.922C121.606 166.822 122.201 166.063 122.101 165.228Z" fill="#7A99AC" stroke="#7A99AC" stroke-width="1.6"/>
<path d="M127.484 164.582C127.384 163.747 126.625 163.152 125.791 163.252C124.956 163.353 124.36 164.111 124.461 164.946C124.561 165.781 125.32 166.376 126.155 166.276C126.99 166.175 127.585 165.417 127.484 164.582Z" fill="#7A99AC" stroke="#7A99AC" stroke-width="1.6"/>
<path d="M132.863 163.935C132.762 163.1 132.004 162.505 131.169 162.606C130.334 162.706 129.739 163.465 129.839 164.299C129.94 165.134 130.698 165.73 131.533 165.629C132.368 165.529 132.964 164.77 132.863 163.935Z" fill="#7A99AC" stroke="#7A99AC" stroke-width="1.6"/>
<path d="M84.8631 113.251L97.01 111.788C98.5091 111.608 99.8781 112.737 100.068 114.311L100.783 120.249L83.2072 122.366L82.492 116.428C82.3024 114.854 83.364 113.432 84.8631 113.251Z" stroke="#FDC82F" stroke-width="1.6"/>
<path fill-rule="evenodd" clip-rule="evenodd" d="M83.2065 122.367L100.782 120.25L101.497 126.188C101.687 127.762 100.625 129.184 99.1263 129.365L86.9794 130.828C85.4803 131.009 84.1113 129.879 83.9217 128.305L83.2065 122.367Z" stroke="#FDC82F" stroke-width="1.6"/>
<path fill-rule="evenodd" clip-rule="evenodd" d="M89 36C89 38.2088 87.2096 40 85 40C82.7912 40 81 38.2088 81 36C81 33.7904 82.7912 32 85 32C87.2096 32 89 33.7904 89 36Z" stroke="#C6DFEA" stroke-width="1.6" stroke-linecap="round" stroke-linejoin="round"/>
<path d="M358 52V64" stroke="#C6DFEA" stroke-width="1.6" stroke-linecap="round" stroke-linejoin="round"/>
<path d="M364 58H352" stroke="#C6DFEA" stroke-width="1.6" stroke-linecap="round" stroke-linejoin="round"/>
<path d="M35 109V101" stroke="#C6DFEA" stroke-width="1.6" stroke-linecap="round" stroke-linejoin="round"/>
<path d="M39 105H31" stroke="#C6DFEA" stroke-width="1.6" stroke-linecap="round" stroke-linejoin="round"/>
<path fill-rule="evenodd" clip-rule="evenodd" d="M333 36C333 38.2088 331.21 40 329 40C326.791 40 325 38.2088 325 36C325 33.7904 326.791 32 329 32C331.21 32 333 33.7904 333 36Z" stroke="#C6DFEA" stroke-width="1.6" stroke-linecap="round" stroke-linejoin="round"/>
<rect x="163.704" y="67.0273" width="157.634" height="136.216" stroke="#004165" stroke-width="1.6" stroke-linecap="round" stroke-linejoin="round"/>
<rect x="163.704" y="97.8691" width="157.634" height="105.375" fill="white" stroke="#004165" stroke-width="1.6" stroke-linecap="round" stroke-linejoin="round"/>
<rect width="157.634" height="30.8414" transform="matrix(1 0 0 -1 163.704 97.8691)" fill="#007DBA" stroke="#004165" stroke-width="1.6" stroke-linecap="round" stroke-linejoin="round"/>
<path opacity="0.2" fill-rule="evenodd" clip-rule="evenodd" d="M321.339 67.0277H302.491V97.8691H321.339V67.0277Z" fill="#004165"/>
<circle cx="185.551" cy="83.7346" r="5.56859" fill="#007DBA" stroke="white" stroke-width="1.6"/>
<ellipse cx="233.098" cy="83.7346" rx="5.99695" ry="5.56859" fill="#007DBA" stroke="white" stroke-width="1.6"/>
<circle cx="280.645" cy="83.7346" r="5.56859" fill="#007DBA" stroke="white" stroke-width="1.6"/>
<path d="M186.053 84.1625C182.711 84.1625 179.63 83.0151 177.166 81.0839C173.67 78.3441 171.415 74.0268 171.415 69.1701C171.415 60.89 177.969 54.1777 186.053 54.1777C193.428 54.1777 199.528 59.7628 200.543 67.0283" stroke="#004165" stroke-width="1.6"/>
<path d="M233.602 84.1625C230.161 84.1625 226.99 83.0151 224.453 81.0839C220.855 78.3441 218.534 74.0268 218.534 69.1701C218.534 60.89 225.28 54.1777 233.602 54.1777C241.194 54.1777 247.474 59.7628 248.518 67.0283" stroke="#004165" stroke-width="1.6"/>
<path d="M281.578 84.1625C278.137 84.1625 274.966 83.0151 272.429 81.0839C268.83 78.3441 266.509 74.0268 266.509 69.1701C266.509 60.89 273.256 54.1777 281.578 54.1777C289.169 54.1777 295.449 59.7628 296.494 67.0283" stroke="#004165" stroke-width="1.6"/>
<path d="M273.378 168.119C273.378 187.799 283.549 185.139 292.639 185.253L287.07 186.538C277.981 186.538 260.512 187.799 260.512 168.119L273.378 168.119Z" fill="#C6DFEA"/>
<rect x="302.491" y="67.0273" width="18.8475" height="136.216" stroke="#004165" stroke-width="1.6" stroke-linecap="round" stroke-linejoin="round"/>
<rect x="303.348" y="98.7266" width="17.1341" height="103.661" fill="white"/>
<path d="M260.038 167.264C260.038 182.267 270.594 185.933 278.971 186.753H167.854C159.364 186.753 144 184.882 144 167.264L260.038 167.264Z" fill="white"/>
<path d="M302.491 171.514C301.547 176.665 296.345 186.968 283.084 186.968C274.593 186.866 260.038 184.882 260.038 167.264C260.038 167.264 182.41 167.264 144 167.264C144 184.882 159.364 186.753 167.854 186.753H278.971" stroke="#004165" stroke-width="1.6"/>
<path fill-rule="evenodd" clip-rule="evenodd" d="M271.68 162.944C271.68 141.029 289.213 123.262 310.84 123.262C332.466 123.262 350 141.029 350 162.944C350 184.859 332.466 202.626 310.84 202.626C289.213 202.626 271.68 184.859 271.68 162.944Z" fill="white" stroke="#007DBA" stroke-width="1.6" stroke-linecap="round" stroke-linejoin="round"/>
<path d="M310.318 141.014V165.368L320.76 176.519" stroke="#007DBA" stroke-width="1.6" stroke-linecap="round" stroke-linejoin="round"/>
<path d="M163.704 186.967V203.244" stroke="#004165" stroke-width="1.6" stroke-linecap="round" stroke-linejoin="round"/>
<path d="M176.651 115.955L289.432 115.955" stroke="#7A99AC" stroke-width="1.6" stroke-miterlimit="10" stroke-linecap="round" stroke-linejoin="round"/>
<path d="M177.696 151.457H258.104" stroke="#7A99AC" stroke-width="1.6" stroke-miterlimit="10" stroke-linecap="round" stroke-linejoin="round"/>
<path d="M199.625 108.643L199.625 160.856" stroke="#7A99AC" stroke-width="1.6" stroke-miterlimit="10" stroke-linecap="round" stroke-linejoin="round"/>
<path d="M233.042 108.643L233.042 160.856" stroke="#7A99AC" stroke-width="1.6" stroke-miterlimit="10" stroke-linecap="round" stroke-linejoin="round"/>
<path d="M266.458 108.643L266.458 139.971" stroke="#7A99AC" stroke-width="1.6" stroke-miterlimit="10" stroke-linecap="round" stroke-linejoin="round"/>
<path d="M176.651 133.705L271.68 133.705" stroke="#7A99AC" stroke-width="1.6" stroke-miterlimit="10" stroke-linecap="round" stroke-linejoin="round"/>
</svg>
